<svg width="125" height="16" viewBox="0 0 125 16" fill="none" xmlns="http://www.w3.org/2000/svg">
<g id="logo-fox-news-noticias">
<g id="Vector">
<path d="M107.055 5.50277L105.808 9.61706H108.493L107.083 5.50277H107.055Z" fill="#999999"/>
<path d="M65.4068 4.36333C63.3252 4.36333 62.0954 6.20896 62.0954 8.04094C62.0954 9.87292 62.9641 11.9267 65.4068 11.9267C67.8495 11.9267 68.7182 9.78081 68.7182 8.04094C68.7182 6.20896 67.4884 4.36333 65.4068 4.36333Z" fill="#999999"/>
<path d="M43.4191 0V16H124.996V0H43.4191ZM57.21 14.0281H55.6224L49.6741 6.12026H49.6434V13.803H47.4392V2.18678H49.0268L54.9751 10.0947H55.0057V2.48699H57.21V14.0281ZM65.4068 14.1032C61.9591 14.1032 59.8162 11.4627 59.8162 8.12964C59.8162 4.79659 62.034 2.18678 65.4068 2.18678C68.7796 2.18678 70.9974 4.7693 70.9974 8.12964C70.9974 11.49 68.8545 14.1032 65.4068 14.1032ZM79.2692 4.40768H76.99V13.803H74.7858V4.40768H72.5066V2.48699H79.2658V4.40768H79.2692ZM83.8241 13.803H81.6199V2.48699H83.8241V13.803ZM94.525 5.48913C93.9117 4.73859 92.9817 4.28827 92.038 4.28827C89.9258 4.28827 88.7095 6.23966 88.7095 8.19104C88.7095 10.1424 89.97 12.0017 92.021 12.0017C92.9646 12.0017 93.9083 11.507 94.525 10.8009V13.4277C93.7005 13.8166 92.8761 14.1032 91.963 14.1032C88.7845 14.1032 86.4338 11.3569 86.4338 8.23539C86.4338 5.11386 88.6959 2.18678 92.0073 2.18678C92.8931 2.18678 93.7618 2.42559 94.525 2.84861V5.48913ZM99.7272 13.803H97.523V2.48699H99.7272V13.803ZM109.975 13.803L109.106 11.4183H105.178L104.248 13.803H101.925L106.33 2.18678H108.036L112.322 13.803H109.968H109.975ZM117.259 14.1032C115.702 14.1032 114.561 13.2026 113.78 11.8959L115.204 10.5006C115.504 11.3706 116.298 12.1518 117.242 12.1518C118.185 12.1518 118.696 11.3876 118.696 10.5177C118.696 9.34755 117.616 9.01663 116.734 8.67207C115.279 8.07164 114.216 7.33475 114.216 5.58124C114.216 3.7049 115.61 2.19019 117.514 2.19019C118.519 2.19019 119.913 2.68486 120.601 3.44904L119.565 4.98081C119.146 4.41109 118.604 4.04947 117.872 4.04947C117.14 4.04947 116.492 4.58849 116.492 5.32537C116.492 7.23241 120.972 6.43753 120.972 10.2311C120.972 12.4964 119.565 14.1032 117.255 14.1032H117.259Z" fill="#999999"/>
<path d="M3.07885 3.32623L0.0399553 16H-0.0043335V2.90661C1.0586 2.92026 2.09087 3.06695 3.07885 3.32623Z" fill="#999999"/>
<path d="M7.13979 5.20938L0.27162 16H0.152381L5.54539 4.26098C6.10071 4.54072 6.63558 4.858 7.1432 5.21279L7.13979 5.20938Z" fill="#999999"/>
<path d="M10.458 0H7.50091L5.82475 3.6435C6.41073 3.93348 6.96945 4.2678 7.50091 4.63966L10.458 0Z" fill="#999999"/>
<path d="M3.23556 2.6678L3.87605 0H-0.0043335V2.23113C1.11311 2.24478 2.19989 2.39829 3.23556 2.67122V2.6678Z" fill="#999999"/>
<path d="M24.7088 4.44179C24.1399 4.44179 23.6799 4.94328 23.6799 5.50277V10.3983C23.6799 10.9578 24.1399 11.4115 24.7088 11.4115C25.2778 11.4115 25.7513 10.9714 25.7513 10.4119L25.7717 5.50277C25.7717 4.94328 25.2743 4.44179 24.7054 4.44179H24.7088ZM24.7088 4.44179C24.1399 4.44179 23.6799 4.94328 23.6799 5.50277V10.3983C23.6799 10.9578 24.1399 11.4115 24.7088 11.4115C25.2778 11.4115 25.7513 10.9714 25.7513 10.4119L25.7717 5.50277C25.7717 4.94328 25.2743 4.44179 24.7054 4.44179H24.7088ZM14.5394 0L13.1835 1.53518H10.9009V4.11429L9.20433 6.03156C9.83118 6.63539 10.4001 7.30064 10.9009 8.01706V9.26908C10.3081 8.26269 9.5893 7.34499 8.75463 6.53646L0.387452 16H13.347L12.6725 15.9898V15.8977C12.6759 15.8635 12.6759 15.826 12.6759 15.7919C12.6759 15.3279 12.652 14.8708 12.6043 14.4171H13.2823C13.3266 14.8674 13.3504 15.3279 13.3504 15.7919C13.3504 15.8362 13.3504 15.8772 13.3504 15.9215V16H42.7378V0H14.5394ZM18.2392 10.0162H14.9278V13.7518H11.5619V2.20043H18.7639L18.9853 5.35949H14.9551V6.86738H18.2392V10.0196V10.0162ZM24.7292 13.8644C21.4655 13.8644 18.8218 11.258 18.8218 8.04094C18.8218 4.82388 21.4655 2.21748 24.7292 2.21748C27.993 2.21748 30.6367 4.82388 30.6367 8.04094C30.6367 11.258 27.993 13.8644 24.7292 13.8644ZM35.9377 13.7348L34.2445 10.893L32.5888 13.7313H28.9503L32.3878 7.78166L29.073 2.21748H32.783L34.2139 4.61578L35.6004 2.21748H39.3003L36.0808 7.74073L39.658 13.7348H35.9377ZM24.7088 4.44179C24.1399 4.44179 23.6799 4.94328 23.6799 5.50277V10.3983C23.6799 10.9578 24.1399 11.4115 24.7088 11.4115C25.2778 11.4115 25.7513 10.9714 25.7513 10.4119L25.7717 5.50277C25.7717 4.94328 25.2743 4.44179 24.7054 4.44179H24.7088ZM24.7088 4.44179C24.1399 4.44179 23.6799 4.94328 23.6799 5.50277V10.3983C23.6799 10.9578 24.1399 11.4115 24.7088 11.4115C25.2778 11.4115 25.7513 10.9714 25.7513 10.4119L25.7717 5.50277C25.7717 4.94328 25.2743 4.44179 24.7054 4.44179H24.7088ZM24.7088 4.44179C24.1399 4.44179 23.6799 4.94328 23.6799 5.50277V10.3983C23.6799 10.9578 24.1399 11.4115 24.7088 11.4115C25.2778 11.4115 25.7513 10.9714 25.7513 10.4119L25.7717 5.50277C25.7717 4.94328 25.2743 4.44179 24.7054 4.44179H24.7088Z" fill="#999999"/>
</g>
</g>
</svg>
